<svg xmlns="http://www.w3.org/2000/svg" width="512" height="512" viewBox="0 0 512 512">
  <path fill="#FFFFFF" d="M37.8569697,285.3739 L37.8569697,450.394459 L9.30909091,450.394459 L9.30909091,475.209581 L503.311515,475.209581 L503.311515,450.394459 L474.763636,450.394459 L474.763636,54.5932678 L512,17.3705852 L494.62303,0 L255.069091,238.845547 L152.048485,135.862791 L0,287.855412 L17.3769697,305.225997 L37.8569697,285.3739 Z M371.122424,157.576023 L449.318788,79.4083895 L449.318788,449.774081 L371.122424,449.774081 L371.122424,157.576023 Z M346.298182,450.394459 L268.101818,450.394459 L268.101818,260.558778 L346.298182,182.391145 L346.298182,450.394459 Z M243.277576,450.394459 L165.081212,450.394459 L165.081212,184.872657 L243.277576,263.04029 L243.277576,450.394459 Z M140.25697,450.394459 L62.6812121,450.394459 L62.6812121,260.558778 L140.877576,182.391145 L140.877576,450.394459 L140.25697,450.394459 Z" transform="translate(0 18)"/>
</svg>
