<svg xmlns="http://www.w3.org/2000/svg" width="512" height="512" viewBox="0 0 512 512">
  <g fill="none" fill-rule="evenodd">
    <circle cx="256" cy="256" r="256" fill="#B263FF"/>
    <path fill="#FFFFFF" fill-rule="nonzero" d="M22.4036364,168.746736 L22.4036364,266.326371 L5.50909091,266.326371 L5.50909091,281 L297.858182,281 L297.858182,266.326371 L280.963636,266.326371 L280.963636,32.2819843 L303,10.2715405 L292.716364,0 L150.949091,141.233681 L89.9818182,80.3381201 L0,170.214099 L10.2836364,180.48564 L22.4036364,168.746736 Z M219.629091,93.1775457 L265.905455,46.9556136 L265.905455,265.95953 L219.629091,265.95953 L219.629091,93.1775457 Z M204.938182,266.326371 L158.661818,266.326371 L158.661818,154.073107 L204.938182,107.851175 L204.938182,266.326371 Z M143.970909,266.326371 L97.6945455,266.326371 L97.6945455,109.318538 L143.970909,155.54047 L143.970909,266.326371 Z M83.0036364,266.326371 L37.0945455,266.326371 L37.0945455,154.073107 L83.3709091,107.851175 L83.3709091,266.326371 L83.0036364,266.326371 Z" transform="translate(106 116)"/>
  </g>
</svg>
